<?xml version="1.0" encoding="UTF-8" standalone="no"?>
<!-- Created with Inkscape (http://www.inkscape.org/) -->

<svg
   width="210mm"
   height="297mm"
   viewBox="0 0 210 297"
   version="1.1"
   id="svg5"
   xmlns="http://www.w3.org/2000/svg"
   xmlns:svg="http://www.w3.org/2000/svg">
  <defs
     id="defs2" />
  <g
     id="layer1">
    <g
       id="g15"
       transform="matrix(0.35277777,0,0,-0.35277777,30.638256,440.76508)">
      <g
         id="g17"
         transform="matrix(0.125,0,0,-0.125,0,1018)">
        <g
           id="g19"
           transform="matrix(6,0,0,6,-1657.575,-652.125)">
          <path
             d="M 0,0 H 2732 V 1571 H 0 Z"
             style="fill:#ffffff;fill-opacity:1;fill-rule:nonzero;stroke:none"
             id="path21" />
        </g>
        <g
           id="g23"
           transform="matrix(6,0,0,6,-1657.575,-652.125)">
          <path
             d="M 355,1398 H 2472 V 118 H 355 Z"
             style="fill:#ffffff;fill-opacity:1;fill-rule:nonzero;stroke:none"
             id="path25" />
        </g>
        <g
           id="g27"
           transform="matrix(6,0,0,6,-1657.575,-652.125)">
          <path
             d="M 355,1398 H 2472"
             style="fill:none;stroke:#262626;stroke-width:0.666667;stroke-linecap:square;stroke-linejoin:round;stroke-miterlimit:10;stroke-dasharray:none;stroke-opacity:1"
             id="path29" />
        </g>
        <g
           id="g31"
           transform="matrix(6,0,0,6,-1657.575,-652.125)">
          <path
             d="M 355,118 H 2472"
             style="fill:none;stroke:#262626;stroke-width:0.666667;stroke-linecap:square;stroke-linejoin:round;stroke-miterlimit:10;stroke-dasharray:none;stroke-opacity:1"
             id="path33" />
        </g>
        <g
           id="g35"
           transform="matrix(6,0,0,6,-1657.575,-652.125)">
          <path
             d="m 355,1398 v -21.17"
             style="fill:none;stroke:#262626;stroke-width:0.666667;stroke-linecap:square;stroke-linejoin:round;stroke-miterlimit:10;stroke-dasharray:none;stroke-opacity:1"
             id="path37" />
        </g>
        <g
           id="g39"
           transform="matrix(6,0,0,6,-1657.575,-652.125)">
          <path
             d="m 778.40002,1398 v -21.17"
             style="fill:none;stroke:#262626;stroke-width:0.666667;stroke-linecap:square;stroke-linejoin:round;stroke-miterlimit:10;stroke-dasharray:none;stroke-opacity:1"
             id="path41" />
        </g>
        <g
           id="g43"
           transform="matrix(6,0,0,6,-1657.575,-652.125)">
          <path
             d="m 1201.8,1398 v -21.17"
             style="fill:none;stroke:#262626;stroke-width:0.666667;stroke-linecap:square;stroke-linejoin:round;stroke-miterlimit:10;stroke-dasharray:none;stroke-opacity:1"
             id="path45" />
        </g>
        <g
           id="g47"
           transform="matrix(6,0,0,6,-1657.575,-652.125)">
          <path
             d="m 1625.2,1398 v -21.17"
             style="fill:none;stroke:#262626;stroke-width:0.666667;stroke-linecap:square;stroke-linejoin:round;stroke-miterlimit:10;stroke-dasharray:none;stroke-opacity:1"
             id="path49" />
        </g>
        <g
           id="g51"
           transform="matrix(6,0,0,6,-1657.575,-652.125)">
          <path
             d="m 2048.6001,1398 v -21.17"
             style="fill:none;stroke:#262626;stroke-width:0.666667;stroke-linecap:square;stroke-linejoin:round;stroke-miterlimit:10;stroke-dasharray:none;stroke-opacity:1"
             id="path53" />
        </g>
        <g
           id="g55"
           transform="matrix(6,0,0,6,-1657.575,-652.125)">
          <path
             d="m 2472,1398 v -21.17"
             style="fill:none;stroke:#262626;stroke-width:0.666667;stroke-linecap:square;stroke-linejoin:round;stroke-miterlimit:10;stroke-dasharray:none;stroke-opacity:1"
             id="path57" />
        </g>
        <g
           id="g59"
           transform="matrix(6,0,0,6,-1657.575,-652.125)">
          <path
             d="m 355,118 v 21.17"
             style="fill:none;stroke:#262626;stroke-width:0.666667;stroke-linecap:square;stroke-linejoin:round;stroke-miterlimit:10;stroke-dasharray:none;stroke-opacity:1"
             id="path61" />
        </g>
        <g
           id="g63"
           transform="matrix(6,0,0,6,-1657.575,-652.125)">
          <path
             d="m 778.40002,118 v 21.17"
             style="fill:none;stroke:#262626;stroke-width:0.666667;stroke-linecap:square;stroke-linejoin:round;stroke-miterlimit:10;stroke-dasharray:none;stroke-opacity:1"
             id="path65" />
        </g>
        <g
           id="g67"
           transform="matrix(6,0,0,6,-1657.575,-652.125)">
          <path
             d="m 1201.8,118 v 21.17"
             style="fill:none;stroke:#262626;stroke-width:0.666667;stroke-linecap:square;stroke-linejoin:round;stroke-miterlimit:10;stroke-dasharray:none;stroke-opacity:1"
             id="path69" />
        </g>
        <g
           id="g71"
           transform="matrix(6,0,0,6,-1657.575,-652.125)">
          <path
             d="m 1625.2,118 v 21.17"
             style="fill:none;stroke:#262626;stroke-width:0.666667;stroke-linecap:square;stroke-linejoin:round;stroke-miterlimit:10;stroke-dasharray:none;stroke-opacity:1"
             id="path73" />
        </g>
        <g
           id="g75"
           transform="matrix(6,0,0,6,-1657.575,-652.125)">
          <path
             d="m 2048.6001,118 v 21.17"
             style="fill:none;stroke:#262626;stroke-width:0.666667;stroke-linecap:square;stroke-linejoin:round;stroke-miterlimit:10;stroke-dasharray:none;stroke-opacity:1"
             id="path77" />
        </g>
        <g
           id="g79"
           transform="matrix(6,0,0,6,-1657.575,-652.125)">
          <path
             d="m 2472,118 v 21.17"
             style="fill:none;stroke:#262626;stroke-width:0.666667;stroke-linecap:square;stroke-linejoin:round;stroke-miterlimit:10;stroke-dasharray:none;stroke-opacity:1"
             id="path81" />
        </g>
        <g
           id="g83">
          <g
             id="g85"
             transform="matrix(6,0,0,6,472.42505,7780.675)">
            <text
               transform="translate(-8,23)"
               style="font-variant:normal;font-weight:normal;font-size:24px;font-family:Helvetica;-inkscape-font-specification:Helvetica;writing-mode:lr-tb;fill:#262626;fill-opacity:1;fill-rule:nonzero;stroke:none"
               id="text89"><tspan
                 x="0"
                 y="0"
                 id="tspan87">0</tspan></text>
          </g>
        </g>
        <g
           id="g91">
          <g
             id="g93"
             transform="matrix(6,0,0,6,3012.8252,7780.675)">
            <text
               transform="translate(-15.5,23)"
               style="font-variant:normal;font-weight:normal;font-size:24px;font-family:Helvetica;-inkscape-font-specification:Helvetica;writing-mode:lr-tb;fill:#262626;fill-opacity:1;fill-rule:nonzero;stroke:none"
               id="text97"><tspan
                 x="0 13.344"
                 y="0"
                 id="tspan95">50</tspan></text>
          </g>
        </g>
        <g
           id="g99">
          <g
             id="g101"
             transform="matrix(6,0,0,6,5553.2253,7780.675)">
            <text
               transform="translate(-23,23)"
               style="font-variant:normal;font-weight:normal;font-size:24px;font-family:Helvetica;-inkscape-font-specification:Helvetica;writing-mode:lr-tb;fill:#262626;fill-opacity:1;fill-rule:nonzero;stroke:none"
               id="text105"><tspan
                 x="0 13.344 26.688"
                 y="0"
                 id="tspan103">100</tspan></text>
          </g>
        </g>
        <g
           id="g107">
          <g
             id="g109"
             transform="matrix(6,0,0,6,8093.6248,7780.675)">
            <text
               transform="translate(-23,23)"
               style="font-variant:normal;font-weight:normal;font-size:24px;font-family:Helvetica;-inkscape-font-specification:Helvetica;writing-mode:lr-tb;fill:#262626;fill-opacity:1;fill-rule:nonzero;stroke:none"
               id="text113"><tspan
                 x="0 13.344 26.688"
                 y="0"
                 id="tspan111">150</tspan></text>
          </g>
        </g>
        <g
           id="g115">
          <g
             id="g117"
             transform="matrix(6,0,0,6,10634.026,7780.675)">
            <text
               transform="translate(-23,23)"
               style="font-variant:normal;font-weight:normal;font-size:24px;font-family:Helvetica;-inkscape-font-specification:Helvetica;writing-mode:lr-tb;fill:#262626;fill-opacity:1;fill-rule:nonzero;stroke:none"
               id="text121"><tspan
                 x="0 13.344 26.688"
                 y="0"
                 id="tspan119">200</tspan></text>
          </g>
        </g>
        <g
           id="g123">
          <g
             id="g125"
             transform="matrix(6,0,0,6,13174.425,7780.675)">
            <text
               transform="translate(-23,23)"
               style="font-variant:normal;font-weight:normal;font-size:24px;font-family:Helvetica;-inkscape-font-specification:Helvetica;writing-mode:lr-tb;fill:#262626;fill-opacity:1;fill-rule:nonzero;stroke:none"
               id="text129"><tspan
                 x="0 13.344 26.688"
                 y="0"
                 id="tspan127">250</tspan></text>
          </g>
        </g>
        <g
           id="g131">
          <g
             id="g133"
             transform="matrix(6,0,0,6,6823.4309,7962.6753)">
            <text
               transform="translate(-51.5,25)"
               style="font-variant:normal;font-weight:normal;font-size:26.4px;font-family:Helvetica;-inkscape-font-specification:Helvetica;writing-mode:lr-tb;fill:#262626;fill-opacity:1;fill-rule:nonzero;stroke:none"
               id="text137"><tspan
                 x="0 7.3392 13.2 35.1912 49.869598 57.208801 66 79.199997"
                 y="0"
                 id="tspan135">time (s)</tspan></text>
          </g>
        </g>
        <g
           id="g139"
           transform="matrix(6,0,0,6,-1657.575,-652.125)">
          <path
             d="M 355,1398 V 118"
             style="fill:none;stroke:#262626;stroke-width:0.666667;stroke-linecap:square;stroke-linejoin:round;stroke-miterlimit:10;stroke-dasharray:none;stroke-opacity:1"
             id="path141" />
        </g>
        <g
           id="g143"
           transform="matrix(6,0,0,6,-1657.575,-652.125)">
          <path
             d="M 2472,1398 V 118"
             style="fill:none;stroke:#262626;stroke-width:0.666667;stroke-linecap:square;stroke-linejoin:round;stroke-miterlimit:10;stroke-dasharray:none;stroke-opacity:1"
             id="path145" />
        </g>
        <g
           id="g147"
           transform="matrix(6,0,0,6,-1657.575,-652.125)">
          <path
             d="m 355,1398 h 21.17001"
             style="fill:none;stroke:#262626;stroke-width:0.666667;stroke-linecap:square;stroke-linejoin:round;stroke-miterlimit:10;stroke-dasharray:none;stroke-opacity:1"
             id="path149" />
        </g>
        <g
           id="g151"
           transform="matrix(6,0,0,6,-1657.575,-652.125)">
          <path
             d="m 355,1184.6666 h 21.17001"
             style="fill:none;stroke:#262626;stroke-width:0.666667;stroke-linecap:square;stroke-linejoin:round;stroke-miterlimit:10;stroke-dasharray:none;stroke-opacity:1"
             id="path153" />
        </g>
        <g
           id="g155"
           transform="matrix(6,0,0,6,-1657.575,-652.125)">
          <path
             d="m 355,971.33331 h 21.17001"
             style="fill:none;stroke:#262626;stroke-width:0.666667;stroke-linecap:square;stroke-linejoin:round;stroke-miterlimit:10;stroke-dasharray:none;stroke-opacity:1"
             id="path157" />
        </g>
        <g
           id="g159"
           transform="matrix(6,0,0,6,-1657.575,-652.125)">
          <path
             d="m 355,758 h 21.17001"
             style="fill:none;stroke:#262626;stroke-width:0.666667;stroke-linecap:square;stroke-linejoin:round;stroke-miterlimit:10;stroke-dasharray:none;stroke-opacity:1"
             id="path161" />
        </g>
        <g
           id="g163"
           transform="matrix(6,0,0,6,-1657.575,-652.125)">
          <path
             d="m 355,544.66669 h 21.17001"
             style="fill:none;stroke:#262626;stroke-width:0.666667;stroke-linecap:square;stroke-linejoin:round;stroke-miterlimit:10;stroke-dasharray:none;stroke-opacity:1"
             id="path165" />
        </g>
        <g
           id="g167"
           transform="matrix(6,0,0,6,-1657.575,-652.125)">
          <path
             d="m 355,331.33334 h 21.17001"
             style="fill:none;stroke:#262626;stroke-width:0.666667;stroke-linecap:square;stroke-linejoin:round;stroke-miterlimit:10;stroke-dasharray:none;stroke-opacity:1"
             id="path169" />
        </g>
        <g
           id="g171"
           transform="matrix(6,0,0,6,-1657.575,-652.125)">
          <path
             d="m 355,118 h 21.17001"
             style="fill:none;stroke:#262626;stroke-width:0.666667;stroke-linecap:square;stroke-linejoin:round;stroke-miterlimit:10;stroke-dasharray:none;stroke-opacity:1"
             id="path173" />
        </g>
        <g
           id="g175"
           transform="matrix(6,0,0,6,-1657.575,-652.125)">
          <path
             d="m 2472,1398 h -21.1699"
             style="fill:none;stroke:#262626;stroke-width:0.666667;stroke-linecap:square;stroke-linejoin:round;stroke-miterlimit:10;stroke-dasharray:none;stroke-opacity:1"
             id="path177" />
        </g>
        <g
           id="g179"
           transform="matrix(6,0,0,6,-1657.575,-652.125)">
          <path
             d="m 2472,1184.6666 h -21.1699"
             style="fill:none;stroke:#262626;stroke-width:0.666667;stroke-linecap:square;stroke-linejoin:round;stroke-miterlimit:10;stroke-dasharray:none;stroke-opacity:1"
             id="path181" />
        </g>
        <g
           id="g183"
           transform="matrix(6,0,0,6,-1657.575,-652.125)">
          <path
             d="m 2472,971.33331 h -21.1699"
             style="fill:none;stroke:#262626;stroke-width:0.666667;stroke-linecap:square;stroke-linejoin:round;stroke-miterlimit:10;stroke-dasharray:none;stroke-opacity:1"
             id="path185" />
        </g>
        <g
           id="g187"
           transform="matrix(6,0,0,6,-1657.575,-652.125)">
          <path
             d="m 2472,758 h -21.1699"
             style="fill:none;stroke:#262626;stroke-width:0.666667;stroke-linecap:square;stroke-linejoin:round;stroke-miterlimit:10;stroke-dasharray:none;stroke-opacity:1"
             id="path189" />
        </g>
        <g
           id="g191"
           transform="matrix(6,0,0,6,-1657.575,-652.125)">
          <path
             d="m 2472,544.66669 h -21.1699"
             style="fill:none;stroke:#262626;stroke-width:0.666667;stroke-linecap:square;stroke-linejoin:round;stroke-miterlimit:10;stroke-dasharray:none;stroke-opacity:1"
             id="path193" />
        </g>
        <g
           id="g195"
           transform="matrix(6,0,0,6,-1657.575,-652.125)">
          <path
             d="m 2472,331.33334 h -21.1699"
             style="fill:none;stroke:#262626;stroke-width:0.666667;stroke-linecap:square;stroke-linejoin:round;stroke-miterlimit:10;stroke-dasharray:none;stroke-opacity:1"
             id="path197" />
        </g>
        <g
           id="g199"
           transform="matrix(6,0,0,6,-1657.575,-652.125)">
          <path
             d="m 2472,118 h -21.1699"
             style="fill:none;stroke:#262626;stroke-width:0.666667;stroke-linecap:square;stroke-linejoin:round;stroke-miterlimit:10;stroke-dasharray:none;stroke-opacity:1"
             id="path201" />
        </g>
        <g
           id="g203">
          <g
             id="g205"
             transform="matrix(6,0,0,6,427.625,7735.875)">
            <text
               transform="translate(-40,8.5)"
               style="font-variant:normal;font-weight:normal;font-size:24px;font-family:Helvetica;-inkscape-font-specification:Helvetica;writing-mode:lr-tb;fill:#262626;fill-opacity:1;fill-rule:nonzero;stroke:none"
               id="text209"><tspan
                 x="0 7.9920001 21.336"
                 y="0"
                 id="tspan207">-30</tspan></text>
          </g>
        </g>
        <g
           id="g211">
          <g
             id="g213"
             transform="matrix(6,0,0,6,427.625,6455.8748)">
            <text
               transform="translate(-40,8.5)"
               style="font-variant:normal;font-weight:normal;font-size:24px;font-family:Helvetica;-inkscape-font-specification:Helvetica;writing-mode:lr-tb;fill:#262626;fill-opacity:1;fill-rule:nonzero;stroke:none"
               id="text217"><tspan
                 x="0 7.9920001 21.336"
                 y="0"
                 id="tspan215">-20</tspan></text>
          </g>
        </g>
        <g
           id="g219">
          <g
             id="g221"
             transform="matrix(6,0,0,6,427.625,5175.8749)">
            <text
               transform="translate(-40,8.5)"
               style="font-variant:normal;font-weight:normal;font-size:24px;font-family:Helvetica;-inkscape-font-specification:Helvetica;writing-mode:lr-tb;fill:#262626;fill-opacity:1;fill-rule:nonzero;stroke:none"
               id="text225"><tspan
                 x="0 7.9920001 21.336"
                 y="0"
                 id="tspan223">-10</tspan></text>
          </g>
        </g>
        <g
           id="g227">
          <g
             id="g229"
             transform="matrix(6,0,0,6,427.625,3895.875)">
            <text
               transform="translate(-16,8.5)"
               style="font-variant:normal;font-weight:normal;font-size:24px;font-family:Helvetica;-inkscape-font-specification:Helvetica;writing-mode:lr-tb;fill:#262626;fill-opacity:1;fill-rule:nonzero;stroke:none"
               id="text233"><tspan
                 x="0"
                 y="0"
                 id="tspan231">0</tspan></text>
          </g>
        </g>
        <g
           id="g235">
          <g
             id="g237"
             transform="matrix(6,0,0,6,427.625,2615.8751)">
            <text
               transform="translate(-31,8.5)"
               style="font-variant:normal;font-weight:normal;font-size:24px;font-family:Helvetica;-inkscape-font-specification:Helvetica;writing-mode:lr-tb;fill:#262626;fill-opacity:1;fill-rule:nonzero;stroke:none"
               id="text241"><tspan
                 x="0 13.344"
                 y="0"
                 id="tspan239">10</tspan></text>
          </g>
        </g>
        <g
           id="g243">
          <g
             id="g245"
             transform="matrix(6,0,0,6,427.625,1335.8751)">
            <text
               transform="translate(-31,8.5)"
               style="font-variant:normal;font-weight:normal;font-size:24px;font-family:Helvetica;-inkscape-font-specification:Helvetica;writing-mode:lr-tb;fill:#262626;fill-opacity:1;fill-rule:nonzero;stroke:none"
               id="text249"><tspan
                 x="0 13.344"
                 y="0"
                 id="tspan247">20</tspan></text>
          </g>
        </g>
        <g
           id="g251">
          <g
             id="g253"
             transform="matrix(6,0,0,6,427.625,55.875)">
            <text
               transform="translate(-31,8.5)"
               style="font-variant:normal;font-weight:normal;font-size:24px;font-family:Helvetica;-inkscape-font-specification:Helvetica;writing-mode:lr-tb;fill:#262626;fill-opacity:1;fill-rule:nonzero;stroke:none"
               id="text257"><tspan
                 x="0 13.344"
                 y="0"
                 id="tspan255">30</tspan></text>
          </g>
        </g>
        <g
           id="g259">
          <g
             id="g261"
             transform="matrix(-2.6e-7,-6,6,-2.6e-7,163.625,3895.8713)">
            <text
               transform="translate(-104,-7)"
               style="font-variant:normal;font-weight:normal;font-size:26.4px;font-family:Helvetica;-inkscape-font-specification:Helvetica;writing-mode:lr-tb;fill:#262626;fill-opacity:1;fill-rule:nonzero;stroke:none"
               id="text265"><tspan
                 x="0 14.6784 29.3568 44.035198 49.896 64.574402 71.913597 86.592003 93.931198 101.2704 108.6096 114.4704 129.1488 143.82719 151.1664 159.9576 170.51759"
                 y="0"
                 id="tspan263">angle of flap (°)</tspan></text>
          </g>
        </g>
        <g
           id="g267"
           transform="matrix(6,0,0,6,-1657.575,-652.125)">
          <path
             d="m 355,585.02911 4.23401,14.47785 4.23398,-1.33057 4.23401,2.63483 4.234,24.9693 4.23401,48.53656 4.23398,58.76538 4.23401,53.1933 4.23401,39.17352 4.23398,25.95392 4.23401,18.15283 4.23401,14.04614 4.234,8.4021 4.23398,-2.73657 4.23401,-18.61438 4.23401,-33.92798 4.23398,-42.23504 4.23401,-40.17041 4.23401,-29.56983 4.234,-16.07648 4.23398,-5.31616 4.23401,0.53723 4.23401,3.29938 4.23398,6.23969 4.23401,11.08398 4.23401,16.43939 4.234,18.83234 4.23398,15.59015 4.23401,7.22552 4.23401,-2.65838 4.23398,-9.89197 4.23401,-12.62787 4.23401,-12.26007 4.23397,-11.76477 4.23401,-12.73371 4.23401,-13.59417 4.23401,-10.71381 4.23398,-1.70917 4.23404,11.71326 4.23395,23.91864 4.23401,28.76904 4.234,23.85584 4.23401,12.44043 4.23401,1.99579 4.23401,-1.14734 4.23401,3.62518 4.23395,10.86176 4.23401,13.05468 4.234,6.1424 4.23401,-7.37726 4.23401,-19.90094 4.23401,-23.72729 4.23401,-16.1615 4.23395,-1.31635 4.23401,12.3476 4.23401,17.27453 4.234,11.16333 4.23401,-2.4132 4.23401,-17.05555 4.23401,-27.69549 4.23395,-32.92822 4.23401,-34.37977 4.23401,-34.06005 4.234,-31.65973 4.23401,-25.27283 4.23401,-13.3606 4.23395,3.67163 4.23401,23.10718 4.23401,40.93799 4.23401,53.59766 4.234,59.32177 4.23401,58.41285 4.23401,52.3305 4.23395,42.28815 4.23401,29.53686 4.23401,15.76825 4.23401,2.93665 4.23401,-7.37616 4.234,-14.65949 4.23401,-19.74408 4.23395,-24.35766 4.23401,-30.12287 4.23401,-37.65747 4.23401,-46.33899 4.23401,-54.27246 4.234,-59.27685 4.23401,-60.07642 4.23395,-56.66687 4.23401,-49.70657 4.23401,-39.58655 4.23401,-26.01239 4.23401,-8.41443 4.23401,13.13468 4.234,37.06182 4.23395,60.5542 4.23401,80.72004 4.23401,95.65771 4.23401,104.57398 4.23401,106.99591 4.23401,100.76749 4.234,80.9534 4.23395,54.4923 4.23401,31.3135 4.23401,1.9697 4.23401,-33.2216 4.23401,-65.8731 4.23401,-90.2289 4.234,-105.96357 4.23395,-115.44909 4.23401,-120.00012 4.23401,-118.26093 4.23401,-103.61722 4.23401,-70.45343 4.23401,-44.33084 4.23401,-28.15637 4.23394,-0.35965 4.23401,38.89307 4.23401,77.21447 4.23401,106.05735 4.23401,123.52514 4.23401,130.55371 4.23401,127.6341 4.23394,111.45428 4.23401,74.8273 4.23401,43.385 4.23401,27.3615 4.23401,2.4382 4.23401,-34.7754 4.23401,-71.888 4.23394,-98.5018 4.23401,-111.59906 4.23401,-113.22607 4.23401,-106.48828 4.23401,-91.22998 4.23401,-64.78037 4.23401,-41.0787 4.23394,-16.56003 4.23401,14.65076 4.23401,47.90155 4.23401,74.91763 4.23401,90.3291 4.23401,93.49915 4.23401,87.01086 4.23395,74.7702 4.234,59.54383 4.23401,42.13011 4.23401,22.2188 4.23401,-0.1177 4.23401,-23.39766 4.23401,-44.8869 4.23395,-61.82715 4.234,-72.69268 4.23401,-77.45301 4.23401,-77.06183 4.234,-71.79125 4.234,-60.2663 4.234,-40.47891 4.234,-12.22736 4.234,20.9548 4.2341,52.211 4.2338,74.29749 4.2341,83.23694 4.234,80.25177 4.234,70.70874 4.234,60.04272 4.234,50.08295 4.234,38.53824 4.234,21.8061 4.234,-1.2428 4.234,-27.5359 4.234,-51.46426 4.234,-68.59595 4.234,-78.38446 4.2341,-83.36011 4.2338,-86.06451 4.2341,-85.99475 4.234,-77.44101 4.234,-53.84677 4.234,-26.12302 4.234,9.13232 4.234,48.5539 4.234,81.84292 4.234,102.10157 4.234,109.5097 4.234,108.68317 4.234,103.0307 4.234,87.90396 4.2341,55.142 4.2338,27.8679 4.2341,-6.5054 4.234,-49.2069 4.234,-84.97817 4.234,-101.11096 4.234,-96.09516 4.234,-77.89453 4.234,-56.72559 4.234,-39.13238 4.234,-26.5177 4.234,-17.10761 4.234,-8.63043 4.234,0.22217 4.2341,9.79761 4.2338,19.98419 4.2341,30.05701 4.234,38.20935 4.234,41.93127 4.234,39.21759 4.234,29.99732 4.234,16.92639 4.234,4.77697 4.234,-1.63891 4.234,-0.0601 4.234,7.76623 4.234,17.14588 4.234,23.1499 4.2341,23.17597 4.2338,17.91839 4.2341,10.28723 4.234,3.11145 4.234,-2.75183 4.234,-8.59741 4.234,-16.41284 4.234,-26.91986 4.234,-37.96686 4.234,-45.75153 4.234,-47.66589 4.234,-44.25971 4.234,-38.69714 4.2341,-34.05279 4.234,-30.51307 4.2338,-24.70752 4.2341,-11.92419 4.234,10.24121 4.234,39.55536 4.234,69.05981 4.234,90.0243 4.234,96.31817 4.234,87.31507 4.234,67.49658 4.234,43.23236 4.234,19.0729 4.234,-4.044 4.2341,-27.6459 4.234,-52.38709 4.2338,-76.22125 4.2341,-94.67053 4.234,-102.65693 4.234,-96.89788 4.234,-77.64441 4.234,-48.83664 4.234,-16.54199 4.234,13.53729 4.234,38.10473 4.234,56.76529 4.234,71.04523 4.234,82.3537 4.2341,90.19336 4.2338,91.89209 4.234,84.11511 4.2341,65.22382 4.234,36.9449 4.234,4.218 4.234,-26.6718 4.234,-50.6146 4.234,-66.03336 4.234,-74.86023 4.234,-80.23023 4.234,-83.72674 4.234,-84.1059 4.234,-78.268 4.2341,-63.65494 4.2338,-40.3703 4.234,-11.57233 4.2341,18.2392 4.234,45.26355 4.234,67.31411 4.234,83.37256 4.234,92.54444 4.234,93.51226 4.234,85.07728 4.234,67.4226 4.234,43.00963 4.234,16.2582 4.234,-7.8699 4.2341,-26.2471 4.2338,-38.73768 4.2341,-47.30505 4.234,-53.88923 4.234,-58.64373 4.234,-59.7843 4.234,-55.11933 4.234,-44.18786 4.234,-29.29218 4.234,-14.26715 4.234,-3.05005 4.234,2.38434 4.234,3.37903 4.234,3.93353 4.2341,8.33197 4.2338,18.61316 4.2341,33.4635 4.234,48.99438 4.234,60.72974 4.234,65.71222 4.234,62.97388 4.234,52.94293 4.234,36.7442 4.234,15.86548 4.234,-7.8767 4.234,-32.35462 4.234,-55.23682 4.234,-74.0929 4.2341,-86.54223 4.2338,-90.58942 4.2341,-84.92224 4.234,-69.78268 4.234,-47.55536 4.234,-22.0799 4.234,3.15619 4.234,26.66098 4.234,49.03308 4.234,71.23041 4.234,92.28986 4.234,108.45135 4.234,114.3653 4.234,103.2972 4.2341,71.3667 4.2338,43.7033 4.2341,14.361 4.234,-19.4791 4.234,-51.2226 4.234,-75.84279 4.234,-92.48175 4.234,-102.13421 4.234,-104.62104 4.234,-98.31457 4.234,-82.40039 4.234,-58.98731 4.234,-32.86508 4.234,-9.00311 4.2341,10.20569 4.2338,25.91455 4.2341,41.22107 4.234,57.62179 4.234,73.49634 4.234,85.10071 4.234,89.08948 4.234,84.77258 4.234,74.49402 4.234,61.87532 4.234,49.2234 4.234,35.9767 4.234,19.3347 4.2341,-3.1594 4.234,-31.2046 4.2338,-61.0089 4.2341,-86.7365 4.234,-103.27314 4.234,-108.51922 4.234,-103.76465 4.234,-92.08887 4.234,-76.15503 4.234,-57.03622 4.234,-34.48435 4.234,-8.30712 4.234,20.16479 4.234,48.03421 4.2341,72.2558 4.234,91.09299 4.2338,104.2229 4.2341,111.47979 4.234,111.50946 4.234,99.89276 4.234,72.8218 4.234,47.8886 4.234,20.9219 4.234,-8.6582 4.234,-34.5577 4.234,-53.438 4.234,-67.38904 4.234,-80.5517 4.2341,-93.99017 4.2338,-103.65484 4.234,-103.41535 4.2341,-89.10364 4.234,-61.73507 4.234,-27.90195 4.234,3.14334 4.234,23.97293 4.234,32.38196 4.234,31.86157 4.234,29.07813 4.234,30.05108 4.234,37.73633 4.234,51.20752 4.2341,66.28235 4.2338,77.48871 4.234,80.55688 4.2341,74.21784 4.234,60.41182 4.2341,42.8734 4.2339,24.905 4.2341,7.6694 4.2339,-9.6715 4.2339,-28.6091 4.2341,-49.5472 4.2339,-70.53085 4.2341,-87.40551 4.2339,-95.6493 4.2342,-92.92242 4.2338,-80.65808 4.2342,-63.46015 4.2339,-46.6174 4.2341,-33.3988 4.2339,-23.24939 4.2341,-12.80151 4.2339,1.05914 4.2339,18.58444 4.2341,37.00363 4.2339,52.77884 4.2341,64.33411 4.2339,73.03143 4.2341,81.61139 4.2339,91.11401 4.2342,98.9419 4.2339,100.18832 4.2341,91.0542 4.2339,71.5474 4.2341,45.4028 4.2339,17.3678 4.2341,-9.9697 4.2339,-37.2912 4.2339,-66.6709 4.2341,-98.1558 4.2339,-127.71303 4.2341,-148.46729 4.2339,-154.41321 4.2342,-143.11197 4.2338,-116.21807 4.2342,-86.42704 4.2339,-59.24055 4.2341,-30.65605 4.2339,1.72892 4.2341,37.61861 4.2339,74.64722 4.2339,108.61596 4.2341,134.81891 4.2339,150.23114 4.2341,154.89447 4.2339,151.07502 4.2341,136.50686 4.2339,102.3765 4.2342,71.4678 4.2339,37.9296 4.2341,3.9994 4.2339,-39.1144 4.2341,-86.5487 4.2339,-123.8933 4.2341,-145.02552 4.2339,-154.10724 4.2339,-157.38312 4.2341,-152.7186 4.2339,-124.40222 4.2341,-83.36258 4.2339,-43.09631 4.2342,-6.68379 4.2338,30.95503 4.2342,75.46069 4.2339,114.91181 4.2341,139.24487 4.2339,149.27283 4.2341,149.46637 4.2339,139.64278 4.2339,111.862 4.2341,66.7421 4.2339,31.0452 4.2341,-4.8207 4.2339,-41.6588 4.2342,-70.4123 4.2338,-87.7503 4.2342,-97.7137 4.2339,-105.42084 4.2341,-111.37762 4.2339,-111.53406 4.2341,-101.57678 4.2339,-81.20179 4.2341,-54.44973 4.2339,-26.27964 4.2339,1.11682 4.2341,28.94483 4.2339,58.99399 4.2341,89.95675 4.2339,116.09528 4.2342,129.77533 4.2338,126.44159 4.2342,107.64319 4.2339,79.94138 4.2341,50.757 4.2339,24.2434 4.2341,0.03 4.2339,-24.5929"
             style="fill:none;stroke:#0072bd;stroke-width:8;stroke-linecap:butt;stroke-linejoin:round;stroke-miterlimit:10;stroke-dasharray:none;stroke-opacity:1"
             id="path269" />
        </g>
        <g
           id="g271"
           transform="matrix(6,0,0,6,-1657.575,-652.125)">
          <path
             d="m 355,965.87689 4.23401,75.47691 4.23398,34.1928 4.23401,6.6855 4.234,-15.7698 4.23401,-46.4844 4.23398,-79.09075 4.23401,-102.75812 4.23401,-112.50531 4.23398,-109.48383 4.23401,-93.84124 4.23401,-59.94034 4.234,-26.1381 4.23398,-4.23989 4.23401,19.93185 4.23401,53.6105 4.23398,86.73313 4.23401,108.26324 4.23401,115.08777 4.234,109.82312 4.23398,92.05187 4.23401,54.9469 4.23401,20.7495 4.23398,-1.6714 4.23401,-26.044 4.23401,-59.9735 4.234,-93.11461 4.23398,-113.90911 4.23401,-119.29151 4.23401,-111.12628 4.23398,-86.95218 4.23401,-50.35403 4.23401,-18.27417 4.23397,5.15298 4.23401,31.49158 4.23401,66.41708 4.23401,99.02301 4.23398,118.36597 4.23404,122.2121 4.23395,111.92706 4.23401,83.70281 4.234,47.5791 4.23401,16.0327 4.23401,-7.8441 4.23401,-35.7558 4.23401,-71.71624 4.23395,-104.0252 4.23401,-122.28675 4.234,-124.99383 4.23401,-113.3371 4.23401,-82.69025 4.23401,-46.00256 4.23401,-14.45999 4.23395,9.78412 4.23401,38.74963 4.23401,75.56644 4.234,107.96264 4.23401,125.7157 4.23401,127.72058 4.23401,115.05103 4.23395,82.53068 4.23401,45.3623 4.23401,13.697 4.234,-11.0861 4.23401,-40.7804 4.23401,-78.2169 4.23395,-110.8424 4.23401,-128.42602 4.23401,-130.04199 4.23401,-116.67078 4.234,-82.77396 4.23401,-45.21719 4.23401,-13.39551 4.23395,11.91916 4.23401,42.09186 4.23401,79.95712 4.23401,112.84442 4.23401,130.43293 4.234,131.8518 4.23401,118.01506 4.23395,83.1549 4.23401,45.302 4.23401,13.3342 4.23401,-12.4288 4.23401,-42.9003 4.234,-81.0494 4.23401,-114.1754 4.23395,-131.84332 4.23401,-133.17566 4.23401,-119.04239 4.23401,-83.53665 4.23401,-45.46842 4.23401,-13.3811 4.234,12.72699 4.23395,43.37527 4.23401,81.70453 4.23401,115.0243 4.23401,132.79107 4.23401,134.09601 4.23401,119.78157 4.234,83.8602 4.23395,45.6419 4.23401,13.4642 4.23401,-12.8928 4.23401,-43.6399 4.23401,-82.0784 4.23401,-115.54375 4.234,-133.40265 4.23395,-134.7085 4.23401,-120.28793 4.23401,-84.10986 4.23401,-45.79041 4.23401,-13.5487 4.23401,12.97949 4.23401,43.77752 4.23394,82.27936 4.23401,115.84812 4.23401,133.78186 4.23401,135.10009 4.23401,120.62046 4.23401,84.2902 4.23401,45.9054 4.23394,13.62 4.23401,-13.0208 4.23401,-43.8423 4.23401,-82.3788 4.23401,-116.01758 4.23401,-134.00757 4.23401,-135.34076 4.23394,-120.83029 4.23401,-84.41409 4.23401,-45.98853 4.23401,-13.67444 4.23401,13.03726 4.23401,43.86765 4.23401,82.42172 4.23394,116.10605 4.23401,134.1358 4.23401,135.48261 4.23401,120.95747 4.23401,84.4956 4.23401,46.0456 4.23401,13.7134 4.23395,-13.0412 4.234,-43.8732 4.23401,-82.4352 4.23401,-116.14799 4.23401,-134.20459 4.23401,-135.56226 4.23401,-121.03137 4.23395,-84.54715 4.234,-46.08307 4.23401,-13.74008 4.23401,13.03989 4.234,43.86987 4.234,82.43475 4.234,116.16458 4.234,134.23865 4.234,135.60437 4.2341,121.0721 4.2338,84.5785 4.2341,46.1068 4.234,13.7574 4.234,-13.0363 4.234,-43.8638 4.234,-82.4288 4.234,-116.1685 4.234,-134.25336 4.234,-135.62476 4.234,-121.09311 4.234,-84.59668 4.234,-46.12118 4.234,-13.76834 4.2341,13.03262 4.2338,43.8573 4.2341,82.42172 4.234,116.16666 4.234,134.25806 4.234,135.63317 4.234,121.1029 4.234,84.6068 4.234,46.1295 4.234,13.7751 4.234,-13.0295 4.234,-43.8518 4.234,-82.4152 4.234,-116.16289 4.2341,-134.25793 4.2338,-135.63556 4.2341,-121.10663 4.234,-84.61209 4.234,-46.13425 4.234,-13.77884 4.234,13.0268 4.234,43.84756 4.234,82.41004 4.234,116.15887 4.234,134.25598 4.234,135.63507 4.234,121.10737 4.234,84.6147 4.2341,46.1368 4.2338,13.781 4.2341,-13.0248 4.234,-43.8444 4.234,-82.4061 4.234,-116.15546 4.234,-134.25354 4.234,-135.63355 4.234,-121.10684 4.234,-84.61587 4.234,-46.13816 4.234,-13.78234 4.234,13.02325 4.234,43.84204 4.2341,82.40332 4.2338,116.15268 4.2341,134.25128 4.234,135.63178 4.234,121.10591 4.234,84.6166 4.234,46.1389 4.234,13.7833 4.234,-13.0218 4.234,-43.8403 4.234,-82.4012 4.234,-116.15064 4.234,-134.24927 4.2341,-135.63025 4.234,-121.10513 4.2338,-84.61697 4.2341,-46.1398 4.234,-13.78409 4.234,13.02026 4.234,43.83866 4.234,82.39962 4.234,116.14893 4.234,134.24768 4.234,135.62897 4.234,121.10453 4.234,84.6177 4.234,46.1407 4.2341,13.7852 4.234,-13.0183 4.2338,-43.8369 4.2341,-82.3982 4.234,-116.14742 4.234,-134.24628 4.234,-135.6278 4.234,-121.10422 4.234,-84.61893 4.234,-46.14221 4.234,-13.78674 4.234,13.01578 4.234,43.83474 4.234,82.39652 4.2341,116.1459 4.2338,134.24481 4.234,135.62684 4.2341,121.10411 4.234,84.6208 4.234,46.1443 4.234,13.7889 4.234,-13.0122 4.234,-43.8319 4.234,-82.3944 4.234,-116.14404 4.234,-134.24317 4.234,-135.62561 4.234,-121.1043 4.2341,-84.6233 4.2338,-46.14712 4.234,-13.79199 4.2341,13.00757 4.234,43.82794 4.234,82.39166 4.234,116.14157 4.234,134.24103 4.234,135.62414 4.234,121.10452 4.234,84.6264 4.234,46.1506 4.234,13.7957 4.234,-13.0016 4.2341,-43.8229 4.2338,-82.388 4.2341,-116.13842 4.234,-134.2381 4.234,-135.62219 4.234,-121.10449 4.234,-84.62949 4.234,-46.15424 4.234,-13.79977 4.234,12.99502 4.234,43.8169 4.234,82.38342 4.234,116.13437 4.234,134.23438 4.2341,135.61944 4.2338,121.10367 4.2341,84.6314 4.234,46.1567 4.234,13.8029 4.234,-12.9893 4.234,-43.811 4.234,-82.3783 4.234,-116.12965 4.234,-134.22992 4.234,-135.61573 4.234,-121.10101 4.234,-84.6293 4.234,-46.15528 4.2341,-13.80258 4.2338,12.98804 4.2341,43.80777 4.234,82.37396 4.234,116.12509 4.234,134.22534 4.234,135.61091 4.234,121.09476 4.234,84.6181 4.234,46.1446 4.234,13.7934 4.234,-12.9986 4.234,-43.8122 4.234,-82.3732 4.2341,-116.12281 4.2338,-134.22217 4.2341,-135.6054 4.234,-121.08207 4.234,-84.58831 4.234,-46.11487 4.234,-13.76612 4.234,13.03486 4.234,43.83428 4.234,82.38166 4.234,116.12716 4.234,134.22388 4.234,135.6001 4.234,121.05811 4.2341,84.5241 4.2338,46.0493 4.2341,13.7039 4.234,-13.1203 4.234,-43.8918 4.234,-82.4101 4.234,-116.14637 4.234,-134.237 4.234,-135.59777 4.234,-121.0156 4.234,-84.39905 4.234,-45.92031 4.234,-13.57923 4.2341,13.29541 4.234,44.01514 4.2338,82.47705 4.2341,116.19507 4.234,134.27356 4.234,135.60364 4.234,120.94346 4.234,84.1715 4.234,45.6839 4.234,13.348 4.234,-13.6249 4.234,-44.254 4.234,-82.6139 4.234,-116.29829 4.2341,-134.35419 4.234,-135.6275 4.2338,-120.82578 4.2341,-83.77792 4.234,-45.27249 4.234,-12.94202 4.234,14.20966 4.234,44.68689 4.234,82.87103 4.234,116.49674 4.234,134.51294 4.234,135.68701 4.234,120.64052 4.234,83.1239 4.2341,44.5867 4.2338,12.2603 4.234,-15.2015 4.2341,-45.4335 4.234,-83.3272 4.234,-116.85442 4.234,-134.80378 4.234,-135.81152 4.234,-120.35824 4.234,-82.07569 4.234,-43.48535 4.234,-11.15854 4.234,16.81973 4.234,46.66999 4.2341,84.10013 4.2338,117.46838 4.234,135.30939 4.2341,136.04846 4.234,119.94306 4.2341,80.4519 4.2339,41.7787 4.2341,9.4396 4.2339,-19.3694 4.2339,-48.6447 4.2341,-85.36015 4.2339,-118.48028 4.2341,-136.15143 4.2339,-136.47205 4.2342,-119.35568 4.2338,-78.02509 4.2342,-39.23028 4.2339,-6.85126 4.2341,23.25534 4.2339,51.69345 4.2341,87.34201 4.2339,120.08759 4.2339,137.50354 4.2341,137.19586 4.2339,118.57443 4.2341,74.5696 4.2339,35.5599 4.2341,2.9838 4.2339,-29.207 4.2342,-56.3327 4.2339,-90.32607 4.2341,-122.53839 4.2339,-139.63702 4.2341,-137.75641 4.2339,-114.40619 4.2341,-70.09708 4.2339,-32.01367 4.2339,1.33643 4.2341,35.0003 4.2339,61.82385 4.2341,94.71305 4.2339,125.77508 4.2342,141.72437 4.2338,137.74133 4.2342,109.68222 4.2339,66.2008 4.2341,28.8173 4.2339,-5.6874 4.2341,-40.5072 4.2339,-67.3553 4.2339,-99.42215 4.2341,-129.29315 4.2339,-143.99084 4.2341,-138.29548 4.2339,-107.26974 4.2341,-63.32108 4.2339,-26.00039 4.2342,9.50311 4.2339,45.63916 4.2341,72.55652 4.2339,104.00217 4.2341,133.08337 4.2339,146.92041 4.2341,140.02557 4.2339,107.28372 4.2339,62.6889 4.2341,24.9381 4.2339,-11.7991 4.2341,-49.6131 4.2339,-76.9297 4.2342,-108.10214 4.2338,-136.89545 4.2342,-150.47473 4.2339,-143.8429 4.2341,-113.20425 4.2339,-66.79492 4.2341,-27.96225 4.2339,8.74771 4.2339,49.52307 4.2341,79.21176 4.2339,111.16944 4.2341,140.44848 4.2339,154.95032 4.2342,150.92364 4.2338,129.29512 4.2342,89.2733 4.2339,48.3044 4.2341,8.2123 4.2339,-34.1071 4.2341,-71.8171 4.2339,-109.6576 4.2341,-142.03865 4.2339,-160.50983 4.2339,-162.24658 4.2341,-149.07114 4.2339,-123.93405 4.2341,-89.06209 4.2339,-46.43909 4.2342,1.07093 4.2338,49.43103 4.2342,94.08235 4.2339,130.83041 4.2341,156.39945 4.2339,168.60791 4.2341,166.39801 4.2339,149.88724"
             style="fill:none;stroke:#d95319;stroke-width:8;stroke-linecap:butt;stroke-linejoin:round;stroke-miterlimit:10;stroke-dasharray:none;stroke-opacity:1"
             id="path273" />
        </g>
        <g
           id="g275"
           transform="matrix(6,0,0,6,-1657.575,-652.125)">
          <path
             d="m 2461,192 v -63 h -236 v 63 z"
             style="fill:#ffffff;fill-opacity:1;fill-rule:nonzero;stroke:none"
             id="path277" />
        </g>
        <g
           id="g279">
          <g
             id="g281"
             transform="matrix(6,0,0,6,12016.425,226.875)">
            <text
               transform="translate(0,7.5)"
               style="font-variant:normal;font-weight:normal;font-size:21.6px;font-family:Helvetica;-inkscape-font-specification:Helvetica;writing-mode:lr-tb;fill:#000000;fill-opacity:1;fill-rule:nonzero;stroke:none"
               id="text285"><tspan
                 x="0 10.8 16.8048 28.8144 39.614399 51.624001 63.633598 74.433601 80.4384 85.233597 96.0336 102.0384 117.6336 129.6432 140.44321"
                 y="0"
                 id="tspan283">stochastic wave</tspan></text>
          </g>
        </g>
        <g
           id="g287"
           transform="matrix(6,0,0,6,-1657.575,-652.125)">
          <path
             d="m 2233,146.5 h 40"
             style="fill:none;stroke:#0072bd;stroke-width:8;stroke-linecap:butt;stroke-linejoin:round;stroke-miterlimit:10;stroke-dasharray:none;stroke-opacity:1"
             id="path289" />
        </g>
        <g
           id="g291">
          <g
             id="g293"
             transform="matrix(6,0,0,6,12016.425,394.875)">
            <text
               transform="translate(0,7.5)"
               style="font-variant:normal;font-weight:normal;font-size:21.6px;font-family:Helvetica;-inkscape-font-specification:Helvetica;writing-mode:lr-tb;fill:#000000;fill-opacity:1;fill-rule:nonzero;stroke:none"
               id="text297"><tspan
                 x="0 12.0096 24.019199 31.212 49.2048 61.214401 73.223999 78.019203 88.819199 94.823997 110.4192 122.4288 133.22881"
                 y="0"
                 id="tspan295">harmonic wave</tspan></text>
          </g>
        </g>
        <g
           id="g299"
           transform="matrix(6,0,0,6,-1657.575,-652.125)">
          <path
             d="m 2233,174.5 h 40"
             style="fill:none;stroke:#d95319;stroke-width:8;stroke-linecap:butt;stroke-linejoin:round;stroke-miterlimit:10;stroke-dasharray:none;stroke-opacity:1"
             id="path301" />
        </g>
        <g
           id="g303"
           transform="matrix(6,0,0,6,-1657.575,-652.125)">
          <path
             d="m 2225,192 v -63 h 236 v 63 z"
             style="fill:none;stroke:#262626;stroke-width:0.666667;stroke-linecap:butt;stroke-linejoin:miter;stroke-miterlimit:10;stroke-dasharray:none;stroke-opacity:1"
             id="path305" />
        </g>
      </g>
    </g>
  </g>
</svg>
