<?xml version="1.0" encoding="UTF-8" standalone="no"?>
<!-- Created with Inkscape (http://www.inkscape.org/) -->

<svg
   width="210mm"
   height="297mm"
   viewBox="0 0 210 297"
   version="1.1"
   id="svg5"
   xmlns="http://www.w3.org/2000/svg"
   xmlns:svg="http://www.w3.org/2000/svg">
  <defs
     id="defs2" />
  <g
     id="layer1">
    <g
       id="g15"
       transform="matrix(0.35277777,0,0,-0.35277777,30.638256,440.76508)">
      <g
         id="g17"
         transform="matrix(0.125,0,0,-0.125,0,1018)">
        <g
           id="g2745"
           transform="matrix(8,0,0,-8,-257.82562,12464.438)">
          <g
             id="g2747"
             transform="matrix(0.125,0,0,-0.125,0,1018)">
            <g
               id="g2749"
               transform="matrix(6,0,0,6,-1573,-652.125)">
              <path
                 d="M 0,0 H 2732 V 1571 H 0 Z"
                 style="fill:#ffffff;fill-opacity:1;fill-rule:nonzero;stroke:none"
                 id="path2751" />
            </g>
            <g
               id="g2753"
               transform="matrix(6,0,0,6,-1573,-652.125)">
              <path
                 d="M 355,1398 H 2472 V 118 H 355 Z"
                 style="fill:#ffffff;fill-opacity:1;fill-rule:nonzero;stroke:none"
                 id="path2755" />
            </g>
            <g
               id="g2757"
               transform="matrix(6,0,0,6,-1573,-652.125)">
              <path
                 d="M 355,1398 H 2472"
                 style="fill:none;stroke:#262626;stroke-width:0.666667;stroke-linecap:square;stroke-linejoin:round;stroke-miterlimit:10;stroke-dasharray:none;stroke-opacity:1"
                 id="path2759" />
            </g>
            <g
               id="g2761"
               transform="matrix(6,0,0,6,-1573,-652.125)">
              <path
                 d="M 355,118 H 2472"
                 style="fill:none;stroke:#262626;stroke-width:0.666667;stroke-linecap:square;stroke-linejoin:round;stroke-miterlimit:10;stroke-dasharray:none;stroke-opacity:1"
                 id="path2763" />
            </g>
            <g
               id="g2765"
               transform="matrix(6,0,0,6,-1573,-652.125)">
              <path
                 d="m 355,1398 v -21.17"
                 style="fill:none;stroke:#262626;stroke-width:0.666667;stroke-linecap:square;stroke-linejoin:round;stroke-miterlimit:10;stroke-dasharray:none;stroke-opacity:1"
                 id="path2767" />
            </g>
            <g
               id="g2769"
               transform="matrix(6,0,0,6,-1573,-652.125)">
              <path
                 d="m 778.40002,1398 v -21.17"
                 style="fill:none;stroke:#262626;stroke-width:0.666667;stroke-linecap:square;stroke-linejoin:round;stroke-miterlimit:10;stroke-dasharray:none;stroke-opacity:1"
                 id="path2771" />
            </g>
            <g
               id="g2773"
               transform="matrix(6,0,0,6,-1573,-652.125)">
              <path
                 d="m 1201.8,1398 v -21.17"
                 style="fill:none;stroke:#262626;stroke-width:0.666667;stroke-linecap:square;stroke-linejoin:round;stroke-miterlimit:10;stroke-dasharray:none;stroke-opacity:1"
                 id="path2775" />
            </g>
            <g
               id="g2777"
               transform="matrix(6,0,0,6,-1573,-652.125)">
              <path
                 d="m 1625.2,1398 v -21.17"
                 style="fill:none;stroke:#262626;stroke-width:0.666667;stroke-linecap:square;stroke-linejoin:round;stroke-miterlimit:10;stroke-dasharray:none;stroke-opacity:1"
                 id="path2779" />
            </g>
            <g
               id="g2781"
               transform="matrix(6,0,0,6,-1573,-652.125)">
              <path
                 d="m 2048.6001,1398 v -21.17"
                 style="fill:none;stroke:#262626;stroke-width:0.666667;stroke-linecap:square;stroke-linejoin:round;stroke-miterlimit:10;stroke-dasharray:none;stroke-opacity:1"
                 id="path2783" />
            </g>
            <g
               id="g2785"
               transform="matrix(6,0,0,6,-1573,-652.125)">
              <path
                 d="m 2472,1398 v -21.17"
                 style="fill:none;stroke:#262626;stroke-width:0.666667;stroke-linecap:square;stroke-linejoin:round;stroke-miterlimit:10;stroke-dasharray:none;stroke-opacity:1"
                 id="path2787" />
            </g>
            <g
               id="g2789"
               transform="matrix(6,0,0,6,-1573,-652.125)">
              <path
                 d="m 355,118 v 21.16997"
                 style="fill:none;stroke:#262626;stroke-width:0.666667;stroke-linecap:square;stroke-linejoin:round;stroke-miterlimit:10;stroke-dasharray:none;stroke-opacity:1"
                 id="path2791" />
            </g>
            <g
               id="g2793"
               transform="matrix(6,0,0,6,-1573,-652.125)">
              <path
                 d="m 778.40002,118 v 21.16997"
                 style="fill:none;stroke:#262626;stroke-width:0.666667;stroke-linecap:square;stroke-linejoin:round;stroke-miterlimit:10;stroke-dasharray:none;stroke-opacity:1"
                 id="path2795" />
            </g>
            <g
               id="g2797"
               transform="matrix(6,0,0,6,-1573,-652.125)">
              <path
                 d="m 1201.8,118 v 21.16997"
                 style="fill:none;stroke:#262626;stroke-width:0.666667;stroke-linecap:square;stroke-linejoin:round;stroke-miterlimit:10;stroke-dasharray:none;stroke-opacity:1"
                 id="path2799" />
            </g>
            <g
               id="g2801"
               transform="matrix(6,0,0,6,-1573,-652.125)">
              <path
                 d="m 1625.2,118 v 21.16997"
                 style="fill:none;stroke:#262626;stroke-width:0.666667;stroke-linecap:square;stroke-linejoin:round;stroke-miterlimit:10;stroke-dasharray:none;stroke-opacity:1"
                 id="path2803" />
            </g>
            <g
               id="g2805"
               transform="matrix(6,0,0,6,-1573,-652.125)">
              <path
                 d="m 2048.6001,118 v 21.16997"
                 style="fill:none;stroke:#262626;stroke-width:0.666667;stroke-linecap:square;stroke-linejoin:round;stroke-miterlimit:10;stroke-dasharray:none;stroke-opacity:1"
                 id="path2807" />
            </g>
            <g
               id="g2809"
               transform="matrix(6,0,0,6,-1573,-652.125)">
              <path
                 d="m 2472,118 v 21.16997"
                 style="fill:none;stroke:#262626;stroke-width:0.666667;stroke-linecap:square;stroke-linejoin:round;stroke-miterlimit:10;stroke-dasharray:none;stroke-opacity:1"
                 id="path2811" />
            </g>
            <g
               id="g2813">
              <g
                 id="g2815"
                 transform="matrix(6,0,0,6,557,7780.675)">
                <text
                   transform="translate(-8,23)"
                   style="font-variant:normal;font-weight:normal;font-size:24px;font-family:Helvetica;-inkscape-font-specification:Helvetica;writing-mode:lr-tb;fill:#262626;fill-opacity:1;fill-rule:nonzero;stroke:none"
                   id="text2819"><tspan
                     x="0"
                     y="0"
                     id="tspan2817">0</tspan></text>
              </g>
            </g>
            <g
               id="g2821">
              <g
                 id="g2823"
                 transform="matrix(6,0,0,6,3097.4001,7780.675)">
                <text
                   transform="translate(-15.5,23)"
                   style="font-variant:normal;font-weight:normal;font-size:24px;font-family:Helvetica;-inkscape-font-specification:Helvetica;writing-mode:lr-tb;fill:#262626;fill-opacity:1;fill-rule:nonzero;stroke:none"
                   id="text2827"><tspan
                     x="0 13.344"
                     y="0"
                     id="tspan2825">50</tspan></text>
              </g>
            </g>
            <g
               id="g2829">
              <g
                 id="g2831"
                 transform="matrix(6,0,0,6,5637.8003,7780.675)">
                <text
                   transform="translate(-23,23)"
                   style="font-variant:normal;font-weight:normal;font-size:24px;font-family:Helvetica;-inkscape-font-specification:Helvetica;writing-mode:lr-tb;fill:#262626;fill-opacity:1;fill-rule:nonzero;stroke:none"
                   id="text2835"><tspan
                     x="0 13.344 26.688"
                     y="0"
                     id="tspan2833">100</tspan></text>
              </g>
            </g>
            <g
               id="g2837">
              <g
                 id="g2839"
                 transform="matrix(6,0,0,6,8178.1997,7780.675)">
                <text
                   transform="translate(-23,23)"
                   style="font-variant:normal;font-weight:normal;font-size:24px;font-family:Helvetica;-inkscape-font-specification:Helvetica;writing-mode:lr-tb;fill:#262626;fill-opacity:1;fill-rule:nonzero;stroke:none"
                   id="text2843"><tspan
                     x="0 13.344 26.688"
                     y="0"
                     id="tspan2841">150</tspan></text>
              </g>
            </g>
            <g
               id="g2845">
              <g
                 id="g2847"
                 transform="matrix(6,0,0,6,10718.601,7780.675)">
                <text
                   transform="translate(-23,23)"
                   style="font-variant:normal;font-weight:normal;font-size:24px;font-family:Helvetica;-inkscape-font-specification:Helvetica;writing-mode:lr-tb;fill:#262626;fill-opacity:1;fill-rule:nonzero;stroke:none"
                   id="text2851"><tspan
                     x="0 13.344 26.688"
                     y="0"
                     id="tspan2849">200</tspan></text>
              </g>
            </g>
            <g
               id="g2853">
              <g
                 id="g2855"
                 transform="matrix(6,0,0,6,13259,7780.675)">
                <text
                   transform="translate(-23,23)"
                   style="font-variant:normal;font-weight:normal;font-size:24px;font-family:Helvetica;-inkscape-font-specification:Helvetica;writing-mode:lr-tb;fill:#262626;fill-opacity:1;fill-rule:nonzero;stroke:none"
                   id="text2859"><tspan
                     x="0 13.344 26.688"
                     y="0"
                     id="tspan2857">250</tspan></text>
              </g>
            </g>
            <g
               id="g2861">
              <g
                 id="g2863"
                 transform="matrix(6,0,0,6,6908.0059,7962.6753)">
                <text
                   transform="translate(-51.5,25)"
                   style="font-variant:normal;font-weight:normal;font-size:26.4px;font-family:Helvetica;-inkscape-font-specification:Helvetica;writing-mode:lr-tb;fill:#262626;fill-opacity:1;fill-rule:nonzero;stroke:none"
                   id="text2867"><tspan
                     x="0 7.3392 13.2 35.1912 49.869598 57.208801 66 79.199997"
                     y="0"
                     id="tspan2865">time (s)</tspan></text>
              </g>
            </g>
            <g
               id="g2869"
               transform="matrix(6,0,0,6,-1573,-652.125)">
              <path
                 d="M 355,1398 V 118"
                 style="fill:none;stroke:#262626;stroke-width:0.666667;stroke-linecap:square;stroke-linejoin:round;stroke-miterlimit:10;stroke-dasharray:none;stroke-opacity:1"
                 id="path2871" />
            </g>
            <g
               id="g2873"
               transform="matrix(6,0,0,6,-1573,-652.125)">
              <path
                 d="M 2472,1398 V 118"
                 style="fill:none;stroke:#262626;stroke-width:0.666667;stroke-linecap:square;stroke-linejoin:round;stroke-miterlimit:10;stroke-dasharray:none;stroke-opacity:1"
                 id="path2875" />
            </g>
            <g
               id="g2877"
               transform="matrix(6,0,0,6,-1573,-652.125)">
              <path
                 d="m 355,1398 h 21.17001"
                 style="fill:none;stroke:#262626;stroke-width:0.666667;stroke-linecap:square;stroke-linejoin:round;stroke-miterlimit:10;stroke-dasharray:none;stroke-opacity:1"
                 id="path2879" />
            </g>
            <g
               id="g2881"
               transform="matrix(6,0,0,6,-1573,-652.125)">
              <path
                 d="m 355,1255.7778 h 21.17001"
                 style="fill:none;stroke:#262626;stroke-width:0.666667;stroke-linecap:square;stroke-linejoin:round;stroke-miterlimit:10;stroke-dasharray:none;stroke-opacity:1"
                 id="path2883" />
            </g>
            <g
               id="g2885"
               transform="matrix(6,0,0,6,-1573,-652.125)">
              <path
                 d="m 355,1113.5555 h 21.17001"
                 style="fill:none;stroke:#262626;stroke-width:0.666667;stroke-linecap:square;stroke-linejoin:round;stroke-miterlimit:10;stroke-dasharray:none;stroke-opacity:1"
                 id="path2887" />
            </g>
            <g
               id="g2889"
               transform="matrix(6,0,0,6,-1573,-652.125)">
              <path
                 d="m 355,971.33331 h 21.17001"
                 style="fill:none;stroke:#262626;stroke-width:0.666667;stroke-linecap:square;stroke-linejoin:round;stroke-miterlimit:10;stroke-dasharray:none;stroke-opacity:1"
                 id="path2891" />
            </g>
            <g
               id="g2893"
               transform="matrix(6,0,0,6,-1573,-652.125)">
              <path
                 d="m 355,829.11108 h 21.17001"
                 style="fill:none;stroke:#262626;stroke-width:0.666667;stroke-linecap:square;stroke-linejoin:round;stroke-miterlimit:10;stroke-dasharray:none;stroke-opacity:1"
                 id="path2895" />
            </g>
            <g
               id="g2897"
               transform="matrix(6,0,0,6,-1573,-652.125)">
              <path
                 d="m 355,686.88892 h 21.17001"
                 style="fill:none;stroke:#262626;stroke-width:0.666667;stroke-linecap:square;stroke-linejoin:round;stroke-miterlimit:10;stroke-dasharray:none;stroke-opacity:1"
                 id="path2899" />
            </g>
            <g
               id="g2901"
               transform="matrix(6,0,0,6,-1573,-652.125)">
              <path
                 d="m 355,544.66669 h 21.17001"
                 style="fill:none;stroke:#262626;stroke-width:0.666667;stroke-linecap:square;stroke-linejoin:round;stroke-miterlimit:10;stroke-dasharray:none;stroke-opacity:1"
                 id="path2903" />
            </g>
            <g
               id="g2905"
               transform="matrix(6,0,0,6,-1573,-652.125)">
              <path
                 d="m 355,402.44446 h 21.17001"
                 style="fill:none;stroke:#262626;stroke-width:0.666667;stroke-linecap:square;stroke-linejoin:round;stroke-miterlimit:10;stroke-dasharray:none;stroke-opacity:1"
                 id="path2907" />
            </g>
            <g
               id="g2909"
               transform="matrix(6,0,0,6,-1573,-652.125)">
              <path
                 d="m 355,260.22223 h 21.17001"
                 style="fill:none;stroke:#262626;stroke-width:0.666667;stroke-linecap:square;stroke-linejoin:round;stroke-miterlimit:10;stroke-dasharray:none;stroke-opacity:1"
                 id="path2911" />
            </g>
            <g
               id="g2913"
               transform="matrix(6,0,0,6,-1573,-652.125)">
              <path
                 d="m 355,118 h 21.17001"
                 style="fill:none;stroke:#262626;stroke-width:0.666667;stroke-linecap:square;stroke-linejoin:round;stroke-miterlimit:10;stroke-dasharray:none;stroke-opacity:1"
                 id="path2915" />
            </g>
            <g
               id="g2917"
               transform="matrix(6,0,0,6,-1573,-652.125)">
              <path
                 d="m 2472,1398 h -21.1699"
                 style="fill:none;stroke:#262626;stroke-width:0.666667;stroke-linecap:square;stroke-linejoin:round;stroke-miterlimit:10;stroke-dasharray:none;stroke-opacity:1"
                 id="path2919" />
            </g>
            <g
               id="g2921"
               transform="matrix(6,0,0,6,-1573,-652.125)">
              <path
                 d="m 2472,1255.7778 h -21.1699"
                 style="fill:none;stroke:#262626;stroke-width:0.666667;stroke-linecap:square;stroke-linejoin:round;stroke-miterlimit:10;stroke-dasharray:none;stroke-opacity:1"
                 id="path2923" />
            </g>
            <g
               id="g2925"
               transform="matrix(6,0,0,6,-1573,-652.125)">
              <path
                 d="m 2472,1113.5555 h -21.1699"
                 style="fill:none;stroke:#262626;stroke-width:0.666667;stroke-linecap:square;stroke-linejoin:round;stroke-miterlimit:10;stroke-dasharray:none;stroke-opacity:1"
                 id="path2927" />
            </g>
            <g
               id="g2929"
               transform="matrix(6,0,0,6,-1573,-652.125)">
              <path
                 d="m 2472,971.33331 h -21.1699"
                 style="fill:none;stroke:#262626;stroke-width:0.666667;stroke-linecap:square;stroke-linejoin:round;stroke-miterlimit:10;stroke-dasharray:none;stroke-opacity:1"
                 id="path2931" />
            </g>
            <g
               id="g2933"
               transform="matrix(6,0,0,6,-1573,-652.125)">
              <path
                 d="m 2472,829.11108 h -21.1699"
                 style="fill:none;stroke:#262626;stroke-width:0.666667;stroke-linecap:square;stroke-linejoin:round;stroke-miterlimit:10;stroke-dasharray:none;stroke-opacity:1"
                 id="path2935" />
            </g>
            <g
               id="g2937"
               transform="matrix(6,0,0,6,-1573,-652.125)">
              <path
                 d="m 2472,686.88892 h -21.1699"
                 style="fill:none;stroke:#262626;stroke-width:0.666667;stroke-linecap:square;stroke-linejoin:round;stroke-miterlimit:10;stroke-dasharray:none;stroke-opacity:1"
                 id="path2939" />
            </g>
            <g
               id="g2941"
               transform="matrix(6,0,0,6,-1573,-652.125)">
              <path
                 d="m 2472,544.66669 h -21.1699"
                 style="fill:none;stroke:#262626;stroke-width:0.666667;stroke-linecap:square;stroke-linejoin:round;stroke-miterlimit:10;stroke-dasharray:none;stroke-opacity:1"
                 id="path2943" />
            </g>
            <g
               id="g2945"
               transform="matrix(6,0,0,6,-1573,-652.125)">
              <path
                 d="m 2472,402.44446 h -21.1699"
                 style="fill:none;stroke:#262626;stroke-width:0.666667;stroke-linecap:square;stroke-linejoin:round;stroke-miterlimit:10;stroke-dasharray:none;stroke-opacity:1"
                 id="path2947" />
            </g>
            <g
               id="g2949"
               transform="matrix(6,0,0,6,-1573,-652.125)">
              <path
                 d="m 2472,260.22223 h -21.1699"
                 style="fill:none;stroke:#262626;stroke-width:0.666667;stroke-linecap:square;stroke-linejoin:round;stroke-miterlimit:10;stroke-dasharray:none;stroke-opacity:1"
                 id="path2951" />
            </g>
            <g
               id="g2953"
               transform="matrix(6,0,0,6,-1573,-652.125)">
              <path
                 d="m 2472,118 h -21.1699"
                 style="fill:none;stroke:#262626;stroke-width:0.666667;stroke-linecap:square;stroke-linejoin:round;stroke-miterlimit:10;stroke-dasharray:none;stroke-opacity:1"
                 id="path2955" />
            </g>
            <g
               id="g2957">
              <g
                 id="g2959"
                 transform="matrix(6,0,0,6,512.19995,7735.875)">
                <text
                   transform="translate(-16,8.5)"
                   style="font-variant:normal;font-weight:normal;font-size:24px;font-family:Helvetica;-inkscape-font-specification:Helvetica;writing-mode:lr-tb;fill:#262626;fill-opacity:1;fill-rule:nonzero;stroke:none"
                   id="text2963"><tspan
                     x="0"
                     y="0"
                     id="tspan2961">0</tspan></text>
              </g>
            </g>
            <g
               id="g2965">
              <g
                 id="g2967"
                 transform="matrix(6,0,0,6,512.19995,6882.542)">
                <text
                   transform="translate(-46,8.5)"
                   style="font-variant:normal;font-weight:normal;font-size:24px;font-family:Helvetica;-inkscape-font-specification:Helvetica;writing-mode:lr-tb;fill:#262626;fill-opacity:1;fill-rule:nonzero;stroke:none"
                   id="text2971"><tspan
                     x="0 13.344 26.688"
                     y="0"
                     id="tspan2969">100</tspan></text>
              </g>
            </g>
            <g
               id="g2973">
              <g
                 id="g2975"
                 transform="matrix(6,0,0,6,512.19995,6029.2083)">
                <text
                   transform="translate(-46,8.5)"
                   style="font-variant:normal;font-weight:normal;font-size:24px;font-family:Helvetica;-inkscape-font-specification:Helvetica;writing-mode:lr-tb;fill:#262626;fill-opacity:1;fill-rule:nonzero;stroke:none"
                   id="text2979"><tspan
                     x="0 13.344 26.688"
                     y="0"
                     id="tspan2977">200</tspan></text>
              </g>
            </g>
            <g
               id="g2981">
              <g
                 id="g2983"
                 transform="matrix(6,0,0,6,512.19995,5175.8749)">
                <text
                   transform="translate(-46,8.5)"
                   style="font-variant:normal;font-weight:normal;font-size:24px;font-family:Helvetica;-inkscape-font-specification:Helvetica;writing-mode:lr-tb;fill:#262626;fill-opacity:1;fill-rule:nonzero;stroke:none"
                   id="text2987"><tspan
                     x="0 13.344 26.688"
                     y="0"
                     id="tspan2985">300</tspan></text>
              </g>
            </g>
            <g
               id="g2989">
              <g
                 id="g2991"
                 transform="matrix(6,0,0,6,512.19995,4322.5415)">
                <text
                   transform="translate(-46,8.5)"
                   style="font-variant:normal;font-weight:normal;font-size:24px;font-family:Helvetica;-inkscape-font-specification:Helvetica;writing-mode:lr-tb;fill:#262626;fill-opacity:1;fill-rule:nonzero;stroke:none"
                   id="text2995"><tspan
                     x="0 13.344 26.688"
                     y="0"
                     id="tspan2993">400</tspan></text>
              </g>
            </g>
            <g
               id="g2997">
              <g
                 id="g2999"
                 transform="matrix(6,0,0,6,512.19995,3469.2085)">
                <text
                   transform="translate(-46,8.5)"
                   style="font-variant:normal;font-weight:normal;font-size:24px;font-family:Helvetica;-inkscape-font-specification:Helvetica;writing-mode:lr-tb;fill:#262626;fill-opacity:1;fill-rule:nonzero;stroke:none"
                   id="text3003"><tspan
                     x="0 13.344 26.688"
                     y="0"
                     id="tspan3001">500</tspan></text>
              </g>
            </g>
            <g
               id="g3005">
              <g
                 id="g3007"
                 transform="matrix(6,0,0,6,512.19995,2615.8751)">
                <text
                   transform="translate(-46,8.5)"
                   style="font-variant:normal;font-weight:normal;font-size:24px;font-family:Helvetica;-inkscape-font-specification:Helvetica;writing-mode:lr-tb;fill:#262626;fill-opacity:1;fill-rule:nonzero;stroke:none"
                   id="text3011"><tspan
                     x="0 13.344 26.688"
                     y="0"
                     id="tspan3009">600</tspan></text>
              </g>
            </g>
            <g
               id="g3013">
              <g
                 id="g3015"
                 transform="matrix(6,0,0,6,512.19995,1762.5417)">
                <text
                   transform="translate(-46,8.5)"
                   style="font-variant:normal;font-weight:normal;font-size:24px;font-family:Helvetica;-inkscape-font-specification:Helvetica;writing-mode:lr-tb;fill:#262626;fill-opacity:1;fill-rule:nonzero;stroke:none"
                   id="text3019"><tspan
                     x="0 13.344 26.688"
                     y="0"
                     id="tspan3017">700</tspan></text>
              </g>
            </g>
            <g
               id="g3021">
              <g
                 id="g3023"
                 transform="matrix(6,0,0,6,512.19995,909.20837)">
                <text
                   transform="translate(-46,8.5)"
                   style="font-variant:normal;font-weight:normal;font-size:24px;font-family:Helvetica;-inkscape-font-specification:Helvetica;writing-mode:lr-tb;fill:#262626;fill-opacity:1;fill-rule:nonzero;stroke:none"
                   id="text3027"><tspan
                     x="0 13.344 26.688"
                     y="0"
                     id="tspan3025">800</tspan></text>
              </g>
            </g>
            <g
               id="g3029">
              <g
                 id="g3031"
                 transform="matrix(6,0,0,6,512.19995,55.875)">
                <text
                   transform="translate(-46,8.5)"
                   style="font-variant:normal;font-weight:normal;font-size:24px;font-family:Helvetica;-inkscape-font-specification:Helvetica;writing-mode:lr-tb;fill:#262626;fill-opacity:1;fill-rule:nonzero;stroke:none"
                   id="text3035"><tspan
                     x="0 13.344 26.688"
                     y="0"
                     id="tspan3033">900</tspan></text>
              </g>
            </g>
            <g
               id="g3037">
              <g
                 id="g3039"
                 transform="matrix(-2.6e-7,-6,6,-2.6e-7,173,4729.875)">
                <text
                   transform="translate(7.3392)"
                   style="font-variant:normal;font-weight:normal;font-size:26.4px;font-family:Helvetica;-inkscape-font-specification:Helvetica;writing-mode:lr-tb;fill:#262626;fill-opacity:1;fill-rule:nonzero;stroke:none"
                   id="text3043"><tspan
                     x="0 17.608801 32.287201 46.965599 52.826401 58.687199 73.365601 88.043999 95.383202 112.992 127.6704 133.5312 140.87041 155.5488 170.2272 184.90559 192.2448 201.036"
                     y="0"
                     id="tspan3041">Applied Voltage (v</tspan></text>
              </g>
            </g>
            <g
               id="g3045">
              <g
                 id="g3047"
                 transform="matrix(-2.6e-7,-6,6,-2.6e-7,95,3217.875)">
                <text
                   style="font-variant:normal;font-weight:normal;font-size:21.12px;font-family:Helvetica;-inkscape-font-specification:Helvetica;writing-mode:lr-tb;fill:#262626;fill-opacity:1;fill-rule:nonzero;stroke:none"
                   id="text3051"><tspan
                     x="0"
                     y="0"
                     id="tspan3049">2</tspan></text>
              </g>
            </g>
            <g
               id="g3053">
              <g
                 id="g3055"
                 transform="matrix(-2.6e-7,-6,6,-2.6e-7,173,3133.875)">
                <text
                   style="font-variant:normal;font-weight:normal;font-size:26.4px;font-family:Helvetica;-inkscape-font-specification:Helvetica;writing-mode:lr-tb;fill:#262626;fill-opacity:1;fill-rule:nonzero;stroke:none"
                   id="text3059"><tspan
                     x="0"
                     y="0"
                     id="tspan3057">)</tspan></text>
              </g>
            </g>
            <g
               id="g3061"
               transform="matrix(6,0,0,6,-1573,-652.125)">
              <path
                 d="m 355,1398 h 4.23401 4.23398 4.23401 4.234 4.23401 4.23398 4.23401 4.23401 4.23398 4.23401 4.23401 4.234 4.23398 4.23401 4.23401 4.23398 4.23401 4.23401 4.234 4.23398 4.23401 4.23401 4.23398 4.23401 4.23401 4.234 4.23398 4.23401 4.23401 4.23398 4.23401 4.23401 4.23397 4.23401 4.23401 4.23401 4.23398 4.23404 4.23395 4.23401 4.234 4.23401 4.23401 4.23401 4.23401 4.23395 4.23401 4.234 4.23401 4.23401 4.23401 4.23401 4.23395 4.23401 4.23401 4.234 4.23401 4.23401 4.23401 4.23395 4.23401 4.23401 4.234 4.23401 4.23401 4.23395 4.23401 4.23401 4.23401 4.234 4.23401 4.23401 4.23395 4.23401 4.23401 4.23401 4.23401 4.234 4.23401 4.23395 4.23401 4.23401 4.23401 4.23401 4.234 4.23401 4.23395 4.23401 4.23401 4.23401 4.23401 4.23401 4.234 4.23395 4.23401 4.23401 4.23401 l 4.23401,-10e-5 4.23401,-313.1333 4.234,-52.6341 4.23395,365.7674 4.23401,10e-5 h 4.23401 4.23401 4.23401 4.23401 4.234 4.23395 4.23401 l 4.23401,-133.481 4.23401,-724.21126 4.23401,373.72607 4.23401,483.96559 4.23401,6e-4 h 4.23394 4.23401 4.23401 4.23401 4.23401 4.23401 l 4.23401,-2e-4 4.23394,-927.50328 4.23401,275.82672 4.23401,651.67626 4.23401,5e-4 h 4.23401 4.23401 4.23401 4.23394 4.23401 4.23401 l 4.23401,-10e-5 4.23401,-587.54616 4.23401,465.05576 4.23401,122.4904 4.23394,10e-5 h 4.23401 4.23401 4.23401 4.23401 4.23401 4.23401 l 4.23395,-10e-5 h 4.234 l 4.23401,10e-5 h 4.23401 4.23401 4.23401 4.23401 4.23395 4.234 4.23401 4.23401 l 4.234,-10e-5 h 4.234 l 4.234,10e-5 h 4.234 4.234 4.2341 4.2338 4.2341 4.234 4.234 4.234 4.234 4.234 4.234 4.234 4.234 4.234 4.234 4.234 4.2341 4.2338 l 4.2341,-2e-4 4.234,-396.5016 4.234,396.5017 4.234,10e-5 h 4.234 4.234 4.234 4.234 4.234 4.234 4.234 l 4.234,-824.58139 4.2341,824.58559 4.2338,10e-5 h 4.2341 4.234 4.234 4.234 4.234 4.234 4.234 4.234 4.234 4.234 4.234 4.234 4.2341 4.2338 4.2341 4.234 4.234 4.234 4.234 4.234 4.234 4.234 4.234 4.234 4.234 4.234 4.2341 4.2338 4.2341 4.234 4.234 4.234 4.234 4.234 4.234 4.234 4.234 4.234 4.234 4.2341 4.234 4.2338 4.2341 4.234 4.234 4.234 4.234 4.234 l 4.234,-10e-5 h 4.234 l 4.234,10e-5 h 4.234 4.234 4.2341 4.234 4.2338 4.2341 4.234 l 4.234,-2e-4 4.234,-5e-4 4.234,6e-4 4.234,10e-5 h 4.234 4.234 4.234 4.234 4.234 4.2341 l 4.2338,-10e-5 4.234,-0.013 4.2341,0.013 4.234,2e-4 h 4.234 4.234 4.234 4.234 4.234 4.234 4.234 l 4.234,-10e-5 4.234,-10e-5 4.2341,10e-5 4.2338,10e-5 h 4.234 4.2341 4.234 4.234 4.234 4.234 4.234 l 4.234,-10e-5 h 4.234 l 4.234,10e-5 h 4.234 4.234 4.2341 4.2338 4.2341 4.234 4.234 4.234 4.234 4.234 4.234 4.234 4.234 4.234 4.234 4.234 4.2341 4.2338 4.2341 4.234 4.234 4.234 4.234 4.234 4.234 4.234 4.234 4.234 4.234 4.234 4.2341 4.2338 l 4.2341,-10e-5 h 4.234 l 4.234,10e-5 h 4.234 4.234 4.234 4.234 4.234 4.234 4.234 l 4.234,-10e-5 4.234,-761.56283 4.2341,761.56283 4.2338,10e-5 h 4.2341 4.234 4.234 4.234 4.234 4.234 4.234 l 4.234,-10e-5 4.234,-10e-5 4.234,2e-4 h 4.234 4.234 4.2341 4.2338 4.2341 4.234 4.234 4.234 4.234 4.234 l 4.234,-10e-5 h 4.234 l 4.234,10e-5 h 4.234 4.234 4.2341 4.234 4.2338 4.2341 4.234 4.234 l 4.234,-10e-5 4.234,-5e-4 4.234,4e-4 4.234,2e-4 h 4.234 4.234 4.234 4.234 4.2341 4.234 4.2338 4.2341 l 4.234,-10e-5 4.234,-554.3688 4.234,554.3688 4.234,10e-5 h 4.234 4.234 4.234 4.234 4.234 4.234 4.2341 4.2338 l 4.234,-10e-5 h 4.2341 l 4.234,10e-5 h 4.234 4.234 4.234 4.234 4.234 4.234 4.234 4.234 4.234 4.2341 4.2338 4.234 4.2341 4.234 4.2341 4.2339 4.2341 4.2339 4.2339 4.2341 4.2339 4.2341 4.2339 4.2342 4.2338 4.2342 4.2339 4.2341 4.2339 4.2341 4.2339 4.2339 4.2341 4.2339 4.2341 4.2339 4.2341 4.2339 4.2342 l 4.2339,-10e-5 h 4.2341 l 4.2339,10e-5 h 4.2341 4.2339 4.2341 4.2339 4.2339 4.2341 4.2339 4.2341 l 4.2339,-10e-5 4.2342,-214.5598 4.2338,120.0382 4.2342,94.5216 4.2339,10e-5 h 4.2341 4.2339 4.2341 4.2339 4.2339 4.2341 4.2339 4.2341 l 4.2339,-4e-4 4.2341,-796.01645 4.2339,421.71835 4.2342,-76.58962 4.2339,378.12772 4.2341,72.7604 h 4.2339 4.2341 4.2339 4.2341 4.2339 l 4.2339,-10e-5 4.2341,-875.88338 4.2339,37.56567 4.2341,187.63727 4.2339,322.81474 4.2342,327.8657 4.2338,10e-5 h 4.2342 4.2339 4.2341 4.2339 4.2341 l 4.2339,-204.1572 4.2339,-429.43423 4.2341,633.59123 4.2339,2e-4 h 4.2341 4.2339 4.2342 4.2338 4.2342 4.2339 4.2341 4.2339 4.2341 4.2339 4.2341 4.2339 4.2339 4.2341 4.2339 4.2341 4.2339 4.2342 4.2338 4.2342 4.2339 4.2341 4.2339 4.2341 4.2339"
                 style="fill:none;stroke:#0072bd;stroke-width:8;stroke-linecap:butt;stroke-linejoin:round;stroke-miterlimit:10;stroke-dasharray:none;stroke-opacity:1"
                 id="path3063" />
            </g>
            <g
               id="g3065"
               transform="matrix(6,0,0,6,-1573,-652.125)">
              <path
                 d="m 355,1398 4.23401,-1102.63663 4.23398,882.07723 4.23401,220.5593 4.234,10e-5 h 4.23401 4.23398 4.23401 4.23401 l 4.23398,-10e-5 4.23401,-854.54958 4.23401,78.98437 4.234,545.45241 4.23398,230.1128 4.23401,10e-5 h 4.23401 4.23398 4.23401 4.23401 l 4.234,-6e-4 4.23398,-940.06294 4.23401,205.25861 4.23401,455.22343 4.23398,279.5814 4.23401,10e-5 h 4.23401 4.234 4.23398 4.23401 l 4.23401,-478.51947 4.23398,-420.24545 4.23401,186.36099 4.23401,421.11083 4.23397,291.293 4.23401,10e-5 h 4.23401 4.23401 4.23398 4.23404 l 4.23395,-721.26721 4.23401,-108.95282 4.234,113.37201 4.23401,459.41982 4.23401,257.4281 4.23401,10e-5 h 4.23401 4.23395 4.23401 l 4.234,-10e-5 4.23401,-807.23116 4.23401,-7.47077 4.23401,103.77558 4.23401,468.80355 4.23395,242.1228 4.23401,10e-5 h 4.23401 4.234 4.23401 l 4.23401,-10e-5 4.23401,-869.52883 4.23395,63.2204 4.23401,98.55676 4.23401,463.35677 4.234,244.3949 4.23401,10e-5 h 4.23401 4.23395 4.23401 l 4.23401,-10e-5 4.23401,-913.82439 4.234,111.31216 4.23401,96.23792 4.23401,452.58681 4.23395,253.6875 4.23401,10e-5 h 4.23401 4.23401 4.23401 l 4.234,-10e-5 4.23401,-944.4342 4.23395,143.04734 4.23401,95.60791 4.23401,441.21895 4.23401,264.56 4.23401,10e-5 h 4.234 4.23401 4.23395 l 4.23401,-10e-5 4.23401,-964.92248 4.23401,163.29764 4.23401,95.84009 4.23401,431.31305 4.234,274.4717 4.23395,10e-5 h 4.23401 4.23401 4.23401 l 4.23401,-10e-5 4.23401,-978.17733 4.234,175.75501 4.23395,96.42083 4.23401,423.50979 4.23401,282.4917 4.23401,10e-5 h 4.23401 4.23401 4.234 l 4.23395,-10e-5 4.23401,-986.44982 4.23401,183.11252 4.23401,97.06543 4.23401,417.76057 4.23401,288.5113 4.23401,10e-5 h 4.23394 4.23401 4.23401 l 4.23401,-10e-5 4.23401,-991.41579 4.23401,187.25506 4.23401,97.63916 4.23394,413.73557 4.23401,292.786 4.23401,10e-5 h 4.23401 4.23401 4.23401 l 4.23401,-10e-5 4.23394,-994.26769 4.23401,189.44955 4.23401,98.09491 4.23401,411.03593 4.23401,295.6873 4.23401,10e-5 h 4.23401 4.23394 4.23401 l 4.23401,-10e-5 4.23401,-995.81927 4.23401,190.51468 4.23401,98.43109 4.23401,409.2949 4.23395,297.5786 4.234,10e-5 h 4.23401 4.23401 4.23401 l 4.23401,-10e-5 4.23401,-996.60311 4.23395,190.95825 4.234,98.66577 4.23401,408.21409 4.23401,298.765 4.234,10e-5 h 4.234 4.234 4.234 l 4.234,-10e-5 4.2341,-996.95501 4.2338,191.08292 4.2341,98.82232 4.234,407.56937 4.234,299.4804 4.234,10e-5 h 4.234 4.234 4.234 l 4.234,-10e-5 4.234,-997.07793 4.234,191.06015 4.234,98.9226 4.234,407.20238 4.2341,299.8928 4.2338,10e-5 h 4.2341 4.234 4.234 l 4.234,-10e-5 4.234,-997.08947 4.234,190.98209 4.234,98.98437 4.234,407.00521 4.234,300.1178 4.234,10e-5 h 4.234 4.234 4.2341 l 4.2338,-10e-5 4.2341,-997.05379 4.234,190.89379 4.234,99.02076 4.234,406.90864 4.234,300.2306 4.234,10e-5 h 4.234 4.234 4.234 l 4.234,-10e-5 4.234,-997.00338 4.234,190.81415 4.2341,99.04132 4.2338,406.86931 4.2341,300.2786 4.234,10e-5 h 4.234 4.234 4.234 l 4.234,-10e-5 4.234,-996.9526 4.234,190.74854 4.234,99.05237 4.234,406.86209 4.234,300.2896 4.234,10e-5 h 4.2341 4.2338 4.2341 l 4.234,-10e-5 4.234,-996.90572 4.234,190.69543 4.234,99.0578 4.234,406.87399 4.234,300.2785 4.234,10e-5 h 4.234 4.234 4.234 l 4.2341,-10e-5 4.234,-996.86178 4.2338,190.65015 4.2341,99.06048 4.234,406.89915 4.234,300.252 4.234,10e-5 h 4.234 4.234 4.234 l 4.234,-10e-5 4.234,-996.81744 4.234,190.60715 4.234,99.06189 4.2341,406.9372 4.234,300.2112 4.2338,10e-5 h 4.2341 4.234 4.234 l 4.234,-10e-5 4.234,-996.76849 4.234,190.56046 4.234,99.06293 4.234,406.9908 4.234,300.1543 4.234,10e-5 h 4.234 4.2341 4.2338 l 4.234,-10e-5 4.2341,-996.71145 4.234,190.5047 4.234,99.06452 4.234,407.06423 4.234,300.078 4.234,10e-5 h 4.234 4.234 4.234 l 4.234,-10e-5 4.234,-996.64529 4.2341,190.43653 4.2338,99.06683 4.234,407.16143 4.2341,299.9805 4.234,10e-5 h 4.234 4.234 4.234 l 4.234,-10e-5 4.234,-996.57534 4.234,190.35687 4.234,99.07032 4.234,407.28285 4.234,299.8653 4.2341,10e-5 h 4.2338 4.2341 4.234 l 4.234,-10e-5 4.234,-996.51864 4.234,190.27527 4.234,99.07514 4.234,407.41853 4.234,299.7497 4.234,10e-5 h 4.234 4.234 4.234 l 4.2341,-10e-5 4.2338,-996.51519 4.2341,190.21903 4.234,99.08117 4.234,407.53769 4.234,299.6773 4.234,10e-5 h 4.234 4.234 4.234 l 4.234,-10e-5 4.234,-996.64477 4.234,190.24784 4.234,99.08734 4.2341,407.56849 4.2338,299.7411 4.2341,10e-5 h 4.234 4.234 4.234 l 4.234,-10e-5 4.234,-997.05511 4.234,190.47745 4.234,99.09161 4.234,407.36565 4.234,300.1204 4.234,10e-5 h 4.234 4.2341 4.2338 l 4.2341,-10e-5 4.234,-998.00451 4.234,191.11887 4.234,99.08868 4.234,406.65886 4.234,301.1381 4.234,10e-5 h 4.234 4.234 4.234 l 4.234,-10e-5 4.234,-999.92394 4.2341,192.53506 4.2338,99.06916 4.2341,404.97142 4.234,303.3483 4.234,10e-5 h 4.234 4.234 4.234 l 4.234,-10e-5 4.234,-1003.50503 4.234,195.32648 4.234,99.01489 4.234,401.49996 4.2341,307.6637 4.234,10e-5 h 4.2338 4.2341 4.234 l 4.234,-10e-5 4.234,-1009.81319 4.234,200.44488 4.234,98.89478 4.234,394.94153 4.234,315.532 4.234,10e-5 h 4.234 4.234 4.2341 l 4.234,-10e-5 4.2338,-1020.42144 4.2341,209.33987 4.234,98.65583 4.234,383.25454 4.234,329.1712 4.234,10e-5 h 4.234 4.234 4.234 l 4.234,-10e-5 4.234,-1037.53558 4.234,224.11936 4.2341,98.21057 4.2338,363.34465 4.234,351.861 4.2341,10e-5 h 4.234 4.234 4.234 l 4.234,-10e-5 4.234,-1064.03548 4.234,247.66735 4.234,97.4209 4.234,330.67913 4.234,388.2681 4.234,10e-5 h 4.2341 4.2338 4.234 l 4.2341,-10e-5 4.234,-1103.26092 4.2341,283.58091 4.2339,96.07879 4.2341,278.87805 4.2339,444.72317 4.2339,10e-5 h 4.2341 4.2339 4.2341 l 4.2339,-2e-4 4.2342,-1158.18252 4.2338,335.63035 4.2342,93.94715 4.2339,199.21948 4.2341,529.38564 4.2339,10e-5 h 4.2341 4.2339 4.2339 l 4.2341,-9e-4 4.2339,-1227.75214 4.2341,403.44341 4.2339,90.30878 4.2341,73.77496 4.2339,660.22579 4.2342,10e-5 h 4.2339 4.2341 4.2339 l 4.2341,-337.9451 4.2339,-843.1542 4.2341,352.34893 4.2339,84.76337 4.2339,39.34833 4.2341,704.63857 4.2339,10e-5 h 4.2341 4.2339 4.2342 l 4.2338,-648.04688 4.2342,-438.27291 4.2339,254.56717 4.2341,85.66259 4.2339,34.02051 4.2341,712.06942 4.2339,10e-5 h 4.2339 4.2341 4.2339 l 4.2341,-745.47699 4.2339,-293.41345 4.2341,228.56042 4.2339,75.73694 4.2342,9.91596 4.2339,724.67692 4.2341,2e-4 h 4.2339 4.2341 4.2339 l 4.2341,-744.58765 4.2339,-237.12588 4.2339,217.24765 4.2341,64.51691 4.2339,-24.71772 4.2341,724.66649 4.2339,2e-4 h 4.2342 4.2338 4.2342 l 4.2339,-481.11499 4.2341,-445.86627 4.2339,272.58575 4.2341,104.38715 4.2339,-131.04175 4.2339,681.04961 4.2341,5e-4 h 4.2339 4.2341 4.2339 l 4.2342,-10e-5 4.2338,-474.83889 4.2342,143.33899 4.2339,61.1559 4.2341,-23.6818 4.2339,294.0257 4.2341,2e-4 h 4.2339 4.2341 4.2339 4.2339 4.2341 4.2339 4.2341 4.2339 4.2342 4.2338 4.2342 4.2339 4.2341 4.2339 4.2341 4.2339"
                 style="fill:none;stroke:#d95319;stroke-width:8;stroke-linecap:butt;stroke-linejoin:round;stroke-miterlimit:10;stroke-dasharray:none;stroke-opacity:1"
                 id="path3067" />
            </g>
            <g
               id="g3069"
               transform="matrix(6,0,0,6,-1573,-652.125)">
              <path
                 d="m 2461,192 v -63 h -236 v 63 z"
                 style="fill:#ffffff;fill-opacity:1;fill-rule:nonzero;stroke:none"
                 id="path3071" />
            </g>
            <g
               id="g3073">
              <g
                 id="g3075"
                 transform="matrix(6,0,0,6,12101,226.875)">
                <text
                   transform="translate(0,7.5)"
                   style="font-variant:normal;font-weight:normal;font-size:21.6px;font-family:Helvetica;-inkscape-font-specification:Helvetica;writing-mode:lr-tb;fill:#000000;fill-opacity:1;fill-rule:nonzero;stroke:none"
                   id="text3079"><tspan
                     x="0 10.8 16.8048 28.8144 39.614399 51.624001 63.633598 74.433601 80.4384 85.233597 96.0336 102.0384 117.6336 129.6432 140.44321"
                     y="0"
                     id="tspan3077">stochastic wave</tspan></text>
              </g>
            </g>
            <g
               id="g3081"
               transform="matrix(6,0,0,6,-1573,-652.125)">
              <path
                 d="m 2233,146.5 h 40"
                 style="fill:none;stroke:#0072bd;stroke-width:8;stroke-linecap:butt;stroke-linejoin:round;stroke-miterlimit:10;stroke-dasharray:none;stroke-opacity:1"
                 id="path3083" />
            </g>
            <g
               id="g3085">
              <g
                 id="g3087"
                 transform="matrix(6,0,0,6,12101,394.875)">
                <text
                   transform="translate(0,7.5)"
                   style="font-variant:normal;font-weight:normal;font-size:21.6px;font-family:Helvetica;-inkscape-font-specification:Helvetica;writing-mode:lr-tb;fill:#000000;fill-opacity:1;fill-rule:nonzero;stroke:none"
                   id="text3091"><tspan
                     x="0 12.0096 24.019199 31.212 49.2048 61.214401 73.223999 78.019203 88.819199 94.823997 110.4192 122.4288 133.22881"
                     y="0"
                     id="tspan3089">harmonic wave</tspan></text>
              </g>
            </g>
            <g
               id="g3093"
               transform="matrix(6,0,0,6,-1573,-652.125)">
              <path
                 d="m 2233,174.5 h 40"
                 style="fill:none;stroke:#d95319;stroke-width:8;stroke-linecap:butt;stroke-linejoin:round;stroke-miterlimit:10;stroke-dasharray:none;stroke-opacity:1"
                 id="path3095" />
            </g>
            <g
               id="g3097"
               transform="matrix(6,0,0,6,-1573,-652.125)">
              <path
                 d="m 2225,192 v -63 h 236 v 63 z"
                 style="fill:none;stroke:#262626;stroke-width:0.666667;stroke-linecap:butt;stroke-linejoin:miter;stroke-miterlimit:10;stroke-dasharray:none;stroke-opacity:1"
                 id="path3099" />
            </g>
          </g>
        </g>
      </g>
    </g>
  </g>
</svg>
